<svg width="30" height="26" viewBox="0 0 63 58" fill="none" xmlns="http://www.w3.org/2000/svg">
<path d="M47.9424 0.5C44.197 0.5 40.4516 2.07168 37.5995 5.21513C37.3053 5.53928 37.0274 5.87452 36.7636 6.21853H4.02012C2.11933 6.21853 0.545898 7.87502 0.545898 9.92861V54.1315C0.545898 56.1852 2.11936 57.8416 4.02012 57.8416H55.9947C57.8953 57.8416 59.4685 56.1852 59.4685 54.1315V26.5403C63.957 20.2194 63.5632 11.0319 58.2854 5.21513C55.4333 2.07168 51.6878 0.5 47.9424 0.5ZM47.9424 1.69219C51.4072 1.69219 54.8722 3.14905 57.5161 6.06301C62.8039 11.8909 62.8039 21.338 57.5161 27.166C52.2283 32.994 43.6566 32.994 38.3688 27.166C33.0808 21.338 33.0808 11.8909 38.3688 6.06301C41.0127 3.14905 44.4776 1.69219 47.9424 1.69219ZM48.3111 6.06114C48.0701 6.06138 47.8284 6.07169 47.5867 6.09159C46.0394 6.21894 44.4859 6.74396 43.028 7.60513C42.7061 7.79524 42.6422 8.27391 42.9007 8.55818L55.2638 22.1501C55.5223 22.4342 55.9564 22.3627 56.1281 22.0077C58.1982 17.7265 58.1103 12.7054 54.7997 9.05684C52.9212 6.98651 50.6415 6.05887 48.3111 6.06114ZM48.417 7.23295C48.6156 7.23427 48.8134 7.24378 49.0105 7.26176C50.8139 7.42627 52.5424 8.26478 54.0304 9.90472C56.8143 12.9728 57.0273 16.9636 55.4795 20.6935L44.2223 8.31716C45.6053 7.6159 47.0268 7.22369 48.417 7.23295ZM4.02012 7.41775H35.9272C31.964 13.6997 32.5213 22.4171 37.5995 28.0138C43.3037 34.3009 52.5811 34.3009 58.2854 28.0138C58.3176 27.9784 58.3486 27.9421 58.3804 27.9063V54.1315C58.3804 54.5526 58.2821 54.9503 58.108 55.3L43.6927 35.3059C43.0331 34.3909 41.7775 34.3276 41.0448 35.1726L33.3317 44.0651C33.0016 44.4458 32.6389 44.4236 32.3486 44.0054L22.2026 29.3869C21.8828 28.9261 21.4116 28.6468 20.9245 28.6476C20.4375 28.6485 19.9672 28.9294 19.6488 29.3913L1.85946 55.2005C1.71477 54.8756 1.63398 54.5131 1.63398 54.1315V9.92861C1.63398 8.54884 2.68658 7.41775 4.02012 7.41775ZM40.1847 11.003C39.9834 11.0048 39.7994 11.1291 39.7066 11.326C37.6961 15.5901 37.8009 20.5531 41.0847 24.1724C41.0848 24.1724 41.0852 24.1723 41.0852 24.1724V24.1726C44.3404 27.7602 48.7862 27.8953 52.638 25.7494C52.967 25.5659 53.0386 25.0823 52.7795 24.7931L40.5766 11.1812C40.4612 11.0541 40.3332 11.003 40.1847 11.003ZM40.3611 12.6472L51.4479 25.0137C48.1045 26.6015 44.5848 26.334 41.8543 23.3245C39.098 20.2869 38.869 16.3533 40.3611 12.6472ZM12.4502 13.3892C9.30433 13.3892 6.74246 16.213 6.74246 19.6802C6.74246 23.1474 9.30433 25.9707 12.4502 25.9707C15.5961 25.9707 18.1582 23.1474 18.1582 19.6802C18.1582 16.213 15.5961 13.3892 12.4502 13.3892ZM12.4502 14.5885C15.0081 14.5885 17.0701 16.8611 17.0701 19.6802C17.0701 22.4993 15.0081 24.7715 12.4502 24.7715C9.89237 24.7715 7.83054 22.4993 7.83054 19.6802C7.83054 16.8611 9.89237 14.5885 12.4502 14.5885ZM20.9265 29.8469C21.0508 29.8467 21.1912 29.9031 21.3385 30.1153L31.4843 44.734C32.1281 45.6616 33.3861 45.7378 34.1182 44.8935L41.8313 36.001C42.1609 35.621 42.544 35.6405 42.8408 36.0521L57.3612 56.1915C56.9758 56.4747 56.5064 56.6423 55.9947 56.6423H4.02012C3.47585 56.6423 2.97999 56.4518 2.58181 56.135L20.515 30.1169C20.6617 29.9042 20.8021 29.8471 20.9265 29.8469Z" stroke="#FFF" fill="#FFF"/>
</svg>
