<svg width="16" height="12" viewBox="0 0 16 12" fill="none" xmlns="http://www.w3.org/2000/svg">
<path d="M15 6.15625L15.1097 6.21611L15.1424 6.15625L15.1097 6.09639L15 6.15625ZM15 6.15625C15.1097 6.21611 15.1097 6.21616 15.1097 6.21624L15.1095 6.21649L15.1091 6.21735L15.1073 6.22045L15.1008 6.23213C15.0987 6.23596 15.0962 6.24047 15.0932 6.24564C15.0884 6.25417 15.0825 6.26449 15.0756 6.27653C15.0534 6.31517 15.0203 6.37148 14.9767 6.44293C14.8895 6.58583 14.7599 6.78938 14.5899 7.03339C14.2499 7.52118 13.7472 8.17177 13.0962 8.82276C11.7964 10.1226 9.89133 11.4375 7.5 11.4375C5.10867 11.4375 3.20362 10.1226 1.9038 8.82276C1.25281 8.17177 0.750121 7.52118 0.410146 7.03339C0.240082 6.78938 0.110532 6.58583 0.0233104 6.44293C-0.0203051 6.37148 -0.0533503 6.31517 -0.0755977 6.27653C-0.0867218 6.25721 -0.0951476 6.2423 -0.100847 6.23213L-0.107347 6.22045L-0.109057 6.21735L-0.109526 6.21649L-0.109664 6.21624C-0.109706 6.21616 -0.109737 6.21611 0 6.15625M15 6.15625C15.1097 6.09639 15.1097 6.09634 15.1097 6.09626L15.1095 6.09601L15.1091 6.09515L15.1073 6.09205L15.1008 6.08037C15.0951 6.0702 15.0867 6.05529 15.0756 6.03597C15.0534 5.99733 15.0203 5.94102 14.9767 5.86957C14.8895 5.72667 14.7599 5.52312 14.5899 5.27911C14.2499 4.79132 13.7472 4.14073 13.0962 3.48974C11.7964 2.18991 9.89133 0.875 7.5 0.875C5.10867 0.875 3.20362 2.18991 1.9038 3.48974C1.25281 4.14073 0.750121 4.79132 0.410146 5.27911C0.240082 5.52312 0.110532 5.72667 0.0233104 5.86957C-0.0203051 5.94102 -0.0533503 5.99733 -0.0755977 6.03597C-0.0867218 6.05529 -0.0951476 6.0702 -0.100847 6.08037L-0.107347 6.09205L-0.109057 6.09515L-0.109526 6.09601L-0.109664 6.09626C-0.109706 6.09634 -0.109737 6.09639 0 6.15625M0 6.15625L-0.109737 6.21611L-0.142386 6.15625L-0.109737 6.09639L0 6.15625ZM1.25162 6.15626C1.64744 5.56512 2.3963 4.56688 3.43261 3.70383C4.51054 2.80611 5.88979 2.0625 7.5 2.0625C9.11068 2.0625 10.4902 2.80634 11.5681 3.70417C12.6044 4.56731 13.353 5.56552 13.7484 6.15624C13.3526 6.74738 12.6037 7.74562 11.5674 8.60868C10.4895 9.50639 9.11021 10.25 7.5 10.25C5.88932 10.25 4.50984 9.50616 3.43191 8.60833C2.39564 7.74519 1.64701 6.74698 1.25162 6.15626ZM9.90858 3.74767C9.26979 3.10887 8.40339 2.75 7.5 2.75C6.59661 2.75 5.73021 3.10887 5.09142 3.74767C4.45262 4.38646 4.09375 5.25286 4.09375 6.15625C4.09375 7.05964 4.45262 7.92604 5.09142 8.56483C5.73021 9.20363 6.59661 9.5625 7.5 9.5625C8.40339 9.5625 9.26979 9.20363 9.90858 8.56483C10.5474 7.92604 10.9062 7.05964 10.9062 6.15625C10.9062 5.25286 10.5474 4.38646 9.90858 3.74767ZM5.93193 4.58818C6.3479 4.17221 6.91188 3.9382 7.50015 3.9375C8.72383 3.93758 9.71875 4.93343 9.71875 6.15625C9.71875 7.37912 8.72374 8.375 7.5 8.375C6.27631 8.375 5.28133 7.3792 5.28125 6.1564C5.28195 5.56813 5.51596 5.00415 5.93193 4.58818Z" fill="white" stroke="white" stroke-width="0.25"/>
</svg>
