<svg width="2.0vh" height="1.8vh" viewBox="0 0 20 18" fill="none" xmlns="http://www.w3.org/2000/svg">
	<path d="M16.5195 2.70703H17.6229V3.81035H16.5195V2.70703Z" fill="#545454" />
	<path d="M18.7248 5.46494C19.3954 4.96131 19.83 4.15964 19.83 3.2583C19.83 1.73737 18.5926 0.5 17.0717 0.5H3.7583C3.01474 0.5 2.31759 0.79146 1.7952 1.32065C1.27289 1.84977 0.990585 2.55085 1.00026 3.29475C1.0117 4.17586 1.44802 4.96061 2.1138 5.45839C1.43831 5.96162 1 6.76638 1 7.67158V10.9815C1 11.8941 1.74242 12.6365 2.65498 12.6365H3.20664V15.9465H2.10332V17.0498H5.41328V15.9465H4.30996V12.6365H13.7617C14.6743 12.6365 15.4167 11.8941 15.4167 10.9815V10.4299H16.52V15.9465H15.4167V17.0498H18.7267V15.9465H17.6234V10.3744C18.8808 10.1181 19.83 9.00366 19.83 7.67158C19.83 6.77024 19.3954 5.96857 18.7248 5.46494ZM18.7267 3.2583C18.7267 4.17086 17.9843 4.91328 17.0717 4.91328C16.1591 4.91328 15.4167 4.17086 15.4167 3.2583C15.4167 2.34574 16.1591 1.60332 17.0717 1.60332C17.9843 1.60332 18.7267 2.34574 18.7267 3.2583ZM2.10347 3.28044C2.09766 2.83393 2.26705 2.41319 2.58043 2.09577C2.89385 1.7782 3.31219 1.60332 3.7583 1.60332H14.8666C14.5195 2.06466 14.3134 2.63783 14.3134 3.2583C14.3134 3.87877 14.5195 4.45195 14.8666 4.91328H3.79122C2.87226 4.91328 2.11516 4.18079 2.10347 3.28044ZM14.3134 10.9815C14.3134 11.2857 14.0659 11.5332 13.7617 11.5332H2.65498C2.3508 11.5332 2.10332 11.2857 2.10332 10.9815V7.67158C2.10332 6.75903 2.84574 6.0166 3.7583 6.0166H14.8666C14.5195 6.47794 14.3134 7.05111 14.3134 7.67158V10.9815ZM17.0717 9.32656C16.1591 9.32656 15.4167 8.58414 15.4167 7.67158C15.4167 6.75903 16.1591 6.0166 17.0717 6.0166C17.9843 6.0166 18.7267 6.75903 18.7267 7.67158C18.7267 8.58414 17.9843 9.32656 17.0717 9.32656Z" fill="#545454" stroke="#545454" stroke-width="0.3" />
	<path d="M16.5195 7.1189H17.6229V8.22222H16.5195V7.1189Z" fill="#545454" />
</svg>
