<svg width="2.4vh" height="0.5vh" viewBox="0 0 24 5" fill="none" xmlns="http://www.w3.org/2000/svg">
	<path d="M2.625 0.625C1.59375 0.625 0.75 1.46875 0.75 2.5C0.75 3.53125 1.59375 4.375 2.625 4.375C3.65625 4.375 4.5 3.53125 4.5 2.5C4.5 1.46875 3.65625 0.625 2.625 0.625ZM21.375 0.625C20.3438 0.625 19.5 1.46875 19.5 2.5C19.5 3.53125 20.3438 4.375 21.375 4.375C22.4062 4.375 23.25 3.53125 23.25 2.5C23.25 1.46875 22.4062 0.625 21.375 0.625ZM12 0.625C10.9688 0.625 10.125 1.46875 10.125 2.5C10.125 3.53125 10.9688 4.375 12 4.375C13.0312 4.375 13.875 3.53125 13.875 2.5C13.875 1.46875 13.0312 0.625 12 0.625Z" fill="#545454" />
</svg>
