<svg width="2vh" height="2vh" viewBox="0 0 9 19" fill="none" xmlns="http://www.w3.org/2000/svg">
<g id="Info">
<path id="Vector" d="M5.63068 5.37122C6.86028 5.37122 7.85706 4.37444 7.85706 3.14484C7.85706 1.91524 6.86028 0.918457 5.63068 0.918457C4.40108 0.918457 3.4043 1.91524 3.4043 3.14484C3.4043 4.37444 4.40108 5.37122 5.63068 5.37122Z" fill="white"/>
<path id="Vector_2" d="M7.90762 14.4047C7.84611 14.3634 7.77696 14.3347 7.70423 14.3204C7.63149 14.3061 7.55663 14.3065 7.48405 14.3215C7.41146 14.3366 7.34261 14.3659 7.28154 14.408C7.22046 14.45 7.16839 14.5037 7.12838 14.5661C6.59032 15.363 5.93116 16.071 5.17473 16.6645C4.99106 16.8037 4.30644 17.3324 4.01701 17.2211C3.81664 17.1599 3.93352 16.7647 3.97249 16.5977L4.26748 15.7239C4.38993 15.3676 6.52169 9.04471 6.75546 8.32114C7.10055 7.26361 6.95027 6.22277 5.37511 6.47324C4.94653 6.51777 0.599515 7.07993 0.521591 7.08549C0.448498 7.09025 0.377057 7.10935 0.311346 7.14171C0.245634 7.17407 0.186941 7.21906 0.138615 7.2741C0.0902902 7.32914 0.0532799 7.39317 0.0296978 7.46251C0.0061156 7.53186 -0.00357644 7.60518 0.00117462 7.67827C0.00592568 7.75136 0.0250271 7.8228 0.057388 7.88851C0.089749 7.95423 0.134736 8.01292 0.18978 8.06125C0.244824 8.10957 0.308847 8.14658 0.378195 8.17016C0.447542 8.19374 0.520856 8.20344 0.593949 8.19869C0.593949 8.19869 2.26374 7.98161 2.44741 7.96492C2.54149 7.95573 2.63622 7.97397 2.72017 8.01742C2.80412 8.06088 2.8737 8.1277 2.92052 8.20982C3.02137 8.52158 3.00755 8.85912 2.88156 9.1616C2.73684 9.71819 0.449234 16.1636 0.376877 16.5365C0.299269 16.8486 0.320816 17.177 0.438523 17.4763C0.55623 17.7756 0.764248 18.0307 1.03366 18.2063C1.53933 18.5433 2.14142 18.7056 2.74797 18.6683C3.33773 18.661 3.92097 18.544 4.46786 18.3232C5.85378 17.7666 7.30093 16.286 8.06346 15.1227C8.12913 15.0045 8.14952 14.8665 8.12084 14.7344C8.09216 14.6022 8.01637 14.4851 7.90762 14.4047Z" fill="white"/>
</g>
</svg>
