<svg width="17" height="19" viewBox="0 0 17 19" fill="none" xmlns="http://www.w3.org/2000/svg">
<path d="M7.89591 18.6736C8.89748 18.6736 9.71694 17.8541 9.71694 16.8525H6.07487C6.07487 17.3355 6.26673 17.7987 6.60824 18.1402C6.94975 18.4817 7.41294 18.6736 7.89591 18.6736ZM13.359 13.2105V8.65786C13.359 5.86257 11.8658 3.52254 9.26168 2.90339V2.28423C9.26168 1.5285 8.65164 0.918457 7.89591 0.918457C7.14018 0.918457 6.53013 1.5285 6.53013 2.28423V2.90339C3.91694 3.52254 2.4328 5.85347 2.4328 8.65786V13.2105L1.25823 14.385C0.684603 14.9586 1.08523 15.942 1.89559 15.942H13.8871C14.6975 15.942 15.1072 14.9586 14.5336 14.385L13.359 13.2105Z" fill="white"/>
<circle cx="13.0627" cy="7.3103" r="2.80102" fill="#AE0000" stroke="#002856" stroke-width="1.5"/>
</svg>
