<svg width="18" height="18" viewBox="0 0 18 18" fill="none" xmlns="http://www.w3.org/2000/svg">
<g id="Setting">
<path id="Vector" d="M8.88201 11.988C8.0346 11.988 7.22189 11.6606 6.62267 11.0777C6.02346 10.4948 5.68683 9.70429 5.68683 8.88C5.68683 8.05571 6.02346 7.26518 6.62267 6.68231C7.22189 6.09945 8.0346 5.772 8.88201 5.772C9.72943 5.772 10.5421 6.09945 11.1414 6.68231C11.7406 7.26518 12.0772 8.05571 12.0772 8.88C12.0772 9.70429 11.7406 10.4948 11.1414 11.0777C10.5421 11.6606 9.72943 11.988 8.88201 11.988ZM15.6649 9.74136C15.7015 9.4572 15.7288 9.17304 15.7288 8.88C15.7288 8.58696 15.7015 8.29392 15.6649 7.992L17.5912 6.54456C17.7646 6.41136 17.8103 6.1716 17.7007 5.97624L15.8749 2.90376C15.7654 2.7084 15.5189 2.62848 15.318 2.7084L13.0449 3.5964C12.5702 3.25008 12.0772 2.94816 11.5021 2.72616L11.1643 0.372962C11.1457 0.26837 11.0897 0.173541 11.0062 0.105275C10.9226 0.0370099 10.8169 -0.00028396 10.7078 1.62812e-06H7.05619C6.82796 1.62812e-06 6.63625 0.159842 6.59974 0.372962L6.26196 2.72616C5.68683 2.94816 5.19385 3.25008 4.71914 3.5964L2.44599 2.7084C2.24515 2.62848 1.99867 2.7084 1.88912 2.90376L0.0632936 5.97624C-0.0553849 6.1716 -0.0006101 6.41136 0.172843 6.54456L2.09909 7.992C2.06257 8.29392 2.03518 8.58696 2.03518 8.88C2.03518 9.17304 2.06257 9.4572 2.09909 9.74136L0.172843 11.2154C-0.0006101 11.3486 -0.0553849 11.5884 0.0632936 11.7838L1.88912 14.8562C1.99867 15.0516 2.24515 15.1226 2.44599 15.0516L4.71914 14.1547C5.19385 14.5099 5.68683 14.8118 6.26196 15.0338L6.59974 17.387C6.63625 17.6002 6.82796 17.76 7.05619 17.76H10.7078C10.9361 17.76 11.1278 17.6002 11.1643 17.387L11.5021 15.0338C12.0772 14.803 12.5702 14.5099 13.0449 14.1547L15.318 15.0516C15.5189 15.1226 15.7654 15.0516 15.8749 14.8562L17.7007 11.7838C17.8103 11.5884 17.7646 11.3486 17.5912 11.2154L15.6649 9.74136Z" fill="white"/>
</g>
</svg>
